<mxfile host="app.diagrams.net" modified="2022-09-21T04:08:07.926Z" agent="5.0 (Windows NT 10.0; Win64; x64) AppleWebKit/537.36 (KHTML, like Gecko) Chrome/105.0.0.0 Safari/537.36" etag="6LXKrzcw-8se6-SI6dD5" version="20.3.3" type="github">
  <diagram id="DF6GhNFOwkegtBmugt1B" name="Página-1">
    <mxGraphModel dx="1038" dy="571" grid="1" gridSize="10" guides="1" tooltips="1" connect="1" arrows="1" fold="1" page="1" pageScale="1" pageWidth="827" pageHeight="1169" math="0" shadow="0">
      <root>
        <mxCell id="0" />
        <mxCell id="1" parent="0" />
        <mxCell id="cDRHpvf0Wvk_rWp7cjT8-2" value="&lt;font color=&quot;#0000cc&quot;&gt;SUCURSALES&lt;/font&gt;" style="whiteSpace=wrap;html=1;align=center;strokeColor=#0000CC;" vertex="1" parent="1">
          <mxGeometry x="70" y="260" width="100" height="40" as="geometry" />
        </mxCell>
        <mxCell id="cDRHpvf0Wvk_rWp7cjT8-3" value="&lt;font color=&quot;#0000cc&quot;&gt;EMPLEADOS&lt;/font&gt;" style="whiteSpace=wrap;html=1;align=center;strokeColor=#0000CC;" vertex="1" parent="1">
          <mxGeometry x="470" y="150" width="100" height="40" as="geometry" />
        </mxCell>
        <mxCell id="cDRHpvf0Wvk_rWp7cjT8-4" value="&lt;font color=&quot;#0000cc&quot;&gt;REVISTAS&lt;/font&gt;" style="whiteSpace=wrap;html=1;align=center;strokeColor=#0000CC;" vertex="1" parent="1">
          <mxGeometry x="70" y="680" width="100" height="40" as="geometry" />
        </mxCell>
        <mxCell id="cDRHpvf0Wvk_rWp7cjT8-5" value="&lt;font color=&quot;#ff0000&quot;&gt;ALMACENAR&lt;/font&gt;" style="shape=rhombus;perimeter=rhombusPerimeter;whiteSpace=wrap;html=1;align=center;strokeColor=#FF0000;" vertex="1" parent="1">
          <mxGeometry x="260" y="250" width="120" height="60" as="geometry" />
        </mxCell>
        <mxCell id="cDRHpvf0Wvk_rWp7cjT8-6" value="&lt;font color=&quot;#ff0000&quot;&gt;PUBLICAR&lt;/font&gt;" style="shape=rhombus;perimeter=rhombusPerimeter;whiteSpace=wrap;html=1;align=center;strokeColor=#FF0000;" vertex="1" parent="1">
          <mxGeometry x="60" y="440" width="120" height="60" as="geometry" />
        </mxCell>
        <mxCell id="cDRHpvf0Wvk_rWp7cjT8-7" value="&lt;font color=&quot;#ff0000&quot;&gt;ESCRIBIR&lt;/font&gt;" style="shape=rhombus;perimeter=rhombusPerimeter;whiteSpace=wrap;html=1;align=center;strokeColor=#FF0000;" vertex="1" parent="1">
          <mxGeometry x="460" y="490" width="120" height="60" as="geometry" />
        </mxCell>
        <mxCell id="cDRHpvf0Wvk_rWp7cjT8-8" value="&lt;font color=&quot;#0000cc&quot;&gt;PERIODISTAS&lt;/font&gt;" style="whiteSpace=wrap;html=1;align=center;strokeColor=#0000CC;" vertex="1" parent="1">
          <mxGeometry x="470" y="350" width="100" height="40" as="geometry" />
        </mxCell>
        <mxCell id="cDRHpvf0Wvk_rWp7cjT8-18" value="" style="endArrow=none;html=1;rounded=0;strokeColor=#FF0000;" edge="1" parent="1">
          <mxGeometry relative="1" as="geometry">
            <mxPoint x="520" y="350" as="sourcePoint" />
            <mxPoint x="520" y="280" as="targetPoint" />
          </mxGeometry>
        </mxCell>
        <mxCell id="cDRHpvf0Wvk_rWp7cjT8-19" value="" style="endArrow=none;html=1;rounded=0;entryX=0.5;entryY=1;entryDx=0;entryDy=0;strokeColor=#FF0000;" edge="1" parent="1" target="cDRHpvf0Wvk_rWp7cjT8-3">
          <mxGeometry relative="1" as="geometry">
            <mxPoint x="380" y="279.5" as="sourcePoint" />
            <mxPoint x="520" y="280" as="targetPoint" />
            <Array as="points">
              <mxPoint x="520" y="280" />
            </Array>
          </mxGeometry>
        </mxCell>
        <mxCell id="cDRHpvf0Wvk_rWp7cjT8-20" value="" style="endArrow=none;html=1;rounded=0;entryX=0.5;entryY=1;entryDx=0;entryDy=0;exitX=0.5;exitY=0;exitDx=0;exitDy=0;strokeColor=#FF0000;" edge="1" parent="1" source="cDRHpvf0Wvk_rWp7cjT8-6" target="cDRHpvf0Wvk_rWp7cjT8-2">
          <mxGeometry relative="1" as="geometry">
            <mxPoint x="40" y="380" as="sourcePoint" />
            <mxPoint x="200" y="380" as="targetPoint" />
          </mxGeometry>
        </mxCell>
        <mxCell id="cDRHpvf0Wvk_rWp7cjT8-21" value="" style="endArrow=none;html=1;rounded=0;entryX=0.5;entryY=1;entryDx=0;entryDy=0;exitX=0.5;exitY=0;exitDx=0;exitDy=0;strokeColor=#FF0000;" edge="1" parent="1" source="cDRHpvf0Wvk_rWp7cjT8-4" target="cDRHpvf0Wvk_rWp7cjT8-6">
          <mxGeometry relative="1" as="geometry">
            <mxPoint x="119.5" y="660" as="sourcePoint" />
            <mxPoint x="119.5" y="520" as="targetPoint" />
          </mxGeometry>
        </mxCell>
        <mxCell id="cDRHpvf0Wvk_rWp7cjT8-22" value="" style="endArrow=none;html=1;rounded=0;entryX=0.5;entryY=1;entryDx=0;entryDy=0;strokeColor=#FF0000;" edge="1" parent="1">
          <mxGeometry relative="1" as="geometry">
            <mxPoint x="520" y="490" as="sourcePoint" />
            <mxPoint x="519.5" y="390" as="targetPoint" />
          </mxGeometry>
        </mxCell>
        <mxCell id="cDRHpvf0Wvk_rWp7cjT8-24" value="" style="endArrow=none;html=1;rounded=0;strokeColor=#FF0000;" edge="1" parent="1">
          <mxGeometry relative="1" as="geometry">
            <mxPoint x="170" y="280" as="sourcePoint" />
            <mxPoint x="260" y="280" as="targetPoint" />
          </mxGeometry>
        </mxCell>
        <mxCell id="cDRHpvf0Wvk_rWp7cjT8-25" value="" style="endArrow=none;html=1;rounded=0;exitX=1;exitY=0.5;exitDx=0;exitDy=0;entryX=0.5;entryY=1;entryDx=0;entryDy=0;strokeColor=#FF0000;startArrow=none;" edge="1" parent="1" source="cDRHpvf0Wvk_rWp7cjT8-50" target="cDRHpvf0Wvk_rWp7cjT8-7">
          <mxGeometry relative="1" as="geometry">
            <mxPoint x="270" y="699.5" as="sourcePoint" />
            <mxPoint x="430" y="699.5" as="targetPoint" />
            <Array as="points">
              <mxPoint x="520" y="700" />
            </Array>
          </mxGeometry>
        </mxCell>
        <mxCell id="cDRHpvf0Wvk_rWp7cjT8-26" value="&lt;font color=&quot;#000000&quot;&gt;CODIGO&lt;/font&gt;" style="ellipse;whiteSpace=wrap;html=1;align=center;fontStyle=4;strokeColor=#000000;fontColor=#0000CC;" vertex="1" parent="1">
          <mxGeometry y="170" width="100" height="40" as="geometry" />
        </mxCell>
        <mxCell id="cDRHpvf0Wvk_rWp7cjT8-27" value="RFC" style="ellipse;whiteSpace=wrap;html=1;align=center;fontStyle=4;strokeColor=#000000;fontColor=#000000;" vertex="1" parent="1">
          <mxGeometry x="470" y="60" width="100" height="40" as="geometry" />
        </mxCell>
        <mxCell id="cDRHpvf0Wvk_rWp7cjT8-28" value="RFC" style="ellipse;whiteSpace=wrap;html=1;align=center;fontStyle=4;strokeColor=#000000;fontColor=#000000;" vertex="1" parent="1">
          <mxGeometry x="660" y="350" width="100" height="40" as="geometry" />
        </mxCell>
        <mxCell id="cDRHpvf0Wvk_rWp7cjT8-29" value="No REGISTRÓ&amp;nbsp;" style="ellipse;whiteSpace=wrap;html=1;align=center;fontStyle=4;strokeColor=#000000;fontColor=#000000;" vertex="1" parent="1">
          <mxGeometry x="10" y="760" width="100" height="40" as="geometry" />
        </mxCell>
        <mxCell id="cDRHpvf0Wvk_rWp7cjT8-30" value="" style="endArrow=none;html=1;rounded=0;strokeColor=#000000;fontColor=#000000;entryX=0.5;entryY=1;entryDx=0;entryDy=0;exitX=0.5;exitY=0;exitDx=0;exitDy=0;" edge="1" parent="1" source="cDRHpvf0Wvk_rWp7cjT8-2" target="cDRHpvf0Wvk_rWp7cjT8-26">
          <mxGeometry relative="1" as="geometry">
            <mxPoint x="60" y="240" as="sourcePoint" />
            <mxPoint x="220" y="240" as="targetPoint" />
          </mxGeometry>
        </mxCell>
        <mxCell id="cDRHpvf0Wvk_rWp7cjT8-31" value="" style="endArrow=none;html=1;rounded=0;strokeColor=#000000;fontColor=#000000;entryX=0.5;entryY=1;entryDx=0;entryDy=0;exitX=0.5;exitY=0;exitDx=0;exitDy=0;" edge="1" parent="1">
          <mxGeometry relative="1" as="geometry">
            <mxPoint x="519.5" y="150" as="sourcePoint" />
            <mxPoint x="519.5" y="100" as="targetPoint" />
          </mxGeometry>
        </mxCell>
        <mxCell id="cDRHpvf0Wvk_rWp7cjT8-32" value="" style="endArrow=none;html=1;rounded=0;strokeColor=#000000;fontColor=#000000;entryX=0.5;entryY=1;entryDx=0;entryDy=0;" edge="1" parent="1">
          <mxGeometry relative="1" as="geometry">
            <mxPoint x="80" y="760" as="sourcePoint" />
            <mxPoint x="80" y="720" as="targetPoint" />
          </mxGeometry>
        </mxCell>
        <mxCell id="cDRHpvf0Wvk_rWp7cjT8-33" value="" style="endArrow=none;html=1;rounded=0;strokeColor=#000000;fontColor=#000000;" edge="1" parent="1">
          <mxGeometry relative="1" as="geometry">
            <mxPoint x="570" y="369.5" as="sourcePoint" />
            <mxPoint x="660" y="370" as="targetPoint" />
          </mxGeometry>
        </mxCell>
        <mxCell id="cDRHpvf0Wvk_rWp7cjT8-34" value="&lt;font color=&quot;#0000cc&quot;&gt;DOMICILIO&lt;/font&gt;" style="ellipse;whiteSpace=wrap;html=1;align=center;strokeColor=#0000CC;fontColor=#000000;" vertex="1" parent="1">
          <mxGeometry x="190" y="220" width="100" height="40" as="geometry" />
        </mxCell>
        <mxCell id="cDRHpvf0Wvk_rWp7cjT8-35" value="&lt;font color=&quot;#0000cc&quot;&gt;TELEFONO&lt;/font&gt;" style="ellipse;whiteSpace=wrap;html=1;align=center;strokeColor=#0000CC;fontColor=#000000;" vertex="1" parent="1">
          <mxGeometry x="120" y="160" width="100" height="40" as="geometry" />
        </mxCell>
        <mxCell id="cDRHpvf0Wvk_rWp7cjT8-36" value="&lt;font color=&quot;#0000cc&quot;&gt;NOMBRE&lt;/font&gt;" style="ellipse;whiteSpace=wrap;html=1;align=center;strokeColor=#0000CC;fontColor=#000000;" vertex="1" parent="1">
          <mxGeometry x="610" y="80" width="100" height="40" as="geometry" />
        </mxCell>
        <mxCell id="cDRHpvf0Wvk_rWp7cjT8-37" value="&lt;font color=&quot;#0000cc&quot;&gt;APELLIDOS&amp;nbsp;&lt;/font&gt;" style="ellipse;whiteSpace=wrap;html=1;align=center;strokeColor=#0000CC;fontColor=#000000;" vertex="1" parent="1">
          <mxGeometry x="690" y="140" width="100" height="40" as="geometry" />
        </mxCell>
        <mxCell id="cDRHpvf0Wvk_rWp7cjT8-38" value="&lt;font color=&quot;#0000cc&quot;&gt;TELEFONO&lt;/font&gt;" style="ellipse;whiteSpace=wrap;html=1;align=center;strokeColor=#0000CC;fontColor=#000000;" vertex="1" parent="1">
          <mxGeometry x="610" y="190" width="100" height="40" as="geometry" />
        </mxCell>
        <mxCell id="cDRHpvf0Wvk_rWp7cjT8-39" value="&lt;font color=&quot;#0000cc&quot;&gt;NOMBRE&lt;/font&gt;" style="ellipse;whiteSpace=wrap;html=1;align=center;strokeColor=#0000CC;fontColor=#000000;" vertex="1" parent="1">
          <mxGeometry x="560" y="280" width="100" height="40" as="geometry" />
        </mxCell>
        <mxCell id="cDRHpvf0Wvk_rWp7cjT8-40" value="&lt;font color=&quot;#0000cc&quot;&gt;APELLIDOS&amp;nbsp;&lt;/font&gt;" style="ellipse;whiteSpace=wrap;html=1;align=center;strokeColor=#0000CC;fontColor=#000000;" vertex="1" parent="1">
          <mxGeometry x="690" y="300" width="100" height="40" as="geometry" />
        </mxCell>
        <mxCell id="cDRHpvf0Wvk_rWp7cjT8-41" value="&lt;font color=&quot;#0000cc&quot;&gt;TELEFONO&lt;/font&gt;" style="ellipse;whiteSpace=wrap;html=1;align=center;strokeColor=#0000CC;fontColor=#000000;" vertex="1" parent="1">
          <mxGeometry x="610" y="470" width="100" height="40" as="geometry" />
        </mxCell>
        <mxCell id="cDRHpvf0Wvk_rWp7cjT8-42" value="&lt;font color=&quot;#0000cc&quot;&gt;ESPECIALIDAD&lt;/font&gt;" style="ellipse;whiteSpace=wrap;html=1;align=center;strokeColor=#0000CC;fontColor=#000000;" vertex="1" parent="1">
          <mxGeometry x="640" y="410" width="100" height="40" as="geometry" />
        </mxCell>
        <mxCell id="cDRHpvf0Wvk_rWp7cjT8-43" value="&lt;font color=&quot;#0000cc&quot;&gt;TÍTULO&amp;nbsp;&lt;/font&gt;" style="ellipse;whiteSpace=wrap;html=1;align=center;strokeColor=#0000CC;fontColor=#000000;" vertex="1" parent="1">
          <mxGeometry x="250" y="640" width="100" height="40" as="geometry" />
        </mxCell>
        <mxCell id="cDRHpvf0Wvk_rWp7cjT8-44" value="&lt;font color=&quot;#0000cc&quot;&gt;PERIOCIDAD&lt;/font&gt;" style="ellipse;whiteSpace=wrap;html=1;align=center;strokeColor=#0000CC;fontColor=#000000;" vertex="1" parent="1">
          <mxGeometry x="160" y="600" width="100" height="40" as="geometry" />
        </mxCell>
        <mxCell id="cDRHpvf0Wvk_rWp7cjT8-45" value="&lt;font color=&quot;#0000cc&quot;&gt;TIPO&lt;/font&gt;" style="ellipse;whiteSpace=wrap;html=1;align=center;strokeColor=#0000CC;fontColor=#000000;" vertex="1" parent="1">
          <mxGeometry x="10" y="600" width="100" height="40" as="geometry" />
        </mxCell>
        <mxCell id="cDRHpvf0Wvk_rWp7cjT8-47" value="&lt;font color=&quot;#0000cc&quot;&gt;FECHA&lt;/font&gt;" style="ellipse;whiteSpace=wrap;html=1;align=center;strokeColor=#0000CC;fontColor=#000000;" vertex="1" parent="1">
          <mxGeometry x="100" y="800" width="100" height="40" as="geometry" />
        </mxCell>
        <mxCell id="cDRHpvf0Wvk_rWp7cjT8-48" value="&lt;font color=&quot;#0000cc&quot;&gt;No PÁGINAS&amp;nbsp;&lt;/font&gt;" style="ellipse;whiteSpace=wrap;html=1;align=center;strokeColor=#0000CC;fontColor=#000000;" vertex="1" parent="1">
          <mxGeometry x="230" y="800" width="100" height="40" as="geometry" />
        </mxCell>
        <mxCell id="cDRHpvf0Wvk_rWp7cjT8-49" value="&lt;font color=&quot;#0000cc&quot;&gt;No EJEMPLARES&amp;nbsp;&lt;/font&gt;" style="ellipse;whiteSpace=wrap;html=1;align=center;strokeColor=#0000CC;fontColor=#000000;" vertex="1" parent="1">
          <mxGeometry x="250" y="720" width="100" height="40" as="geometry" />
        </mxCell>
        <mxCell id="cDRHpvf0Wvk_rWp7cjT8-50" value="&lt;font color=&quot;#0000cc&quot;&gt;SECCIONES&amp;nbsp;&lt;/font&gt;" style="whiteSpace=wrap;html=1;align=center;strokeColor=#0000CC;" vertex="1" parent="1">
          <mxGeometry x="480" y="680" width="100" height="40" as="geometry" />
        </mxCell>
        <mxCell id="cDRHpvf0Wvk_rWp7cjT8-51" value="" style="endArrow=none;html=1;rounded=0;exitX=1;exitY=0.5;exitDx=0;exitDy=0;entryX=0;entryY=0.5;entryDx=0;entryDy=0;strokeColor=#FF0000;" edge="1" parent="1" source="cDRHpvf0Wvk_rWp7cjT8-4" target="cDRHpvf0Wvk_rWp7cjT8-50">
          <mxGeometry relative="1" as="geometry">
            <mxPoint x="170" y="700" as="sourcePoint" />
            <mxPoint x="520" y="550" as="targetPoint" />
            <Array as="points">
              <mxPoint x="480" y="700" />
            </Array>
          </mxGeometry>
        </mxCell>
        <mxCell id="cDRHpvf0Wvk_rWp7cjT8-52" value="&lt;font color=&quot;#0000cc&quot;&gt;TÍTULO&amp;nbsp;&lt;/font&gt;" style="ellipse;whiteSpace=wrap;html=1;align=center;strokeColor=#0000CC;fontColor=#000000;" vertex="1" parent="1">
          <mxGeometry x="640" y="680" width="100" height="40" as="geometry" />
        </mxCell>
        <mxCell id="cDRHpvf0Wvk_rWp7cjT8-53" value="No EXTENSIÓN&amp;nbsp;" style="ellipse;whiteSpace=wrap;html=1;align=center;fontStyle=4;strokeColor=#000000;fontColor=#000000;" vertex="1" parent="1">
          <mxGeometry x="470" y="770" width="100" height="40" as="geometry" />
        </mxCell>
        <mxCell id="cDRHpvf0Wvk_rWp7cjT8-54" value="" style="endArrow=none;html=1;rounded=0;strokeColor=#000000;fontColor=#000000;entryX=0.5;entryY=1;entryDx=0;entryDy=0;exitX=0.5;exitY=0;exitDx=0;exitDy=0;" edge="1" parent="1">
          <mxGeometry relative="1" as="geometry">
            <mxPoint x="519.5" y="770" as="sourcePoint" />
            <mxPoint x="519.5" y="720" as="targetPoint" />
          </mxGeometry>
        </mxCell>
        <mxCell id="cDRHpvf0Wvk_rWp7cjT8-55" value="" style="endArrow=none;html=1;rounded=0;strokeColor=#0000CC;fontColor=#0000CC;exitX=1;exitY=0.25;exitDx=0;exitDy=0;" edge="1" parent="1" source="cDRHpvf0Wvk_rWp7cjT8-3">
          <mxGeometry relative="1" as="geometry">
            <mxPoint x="540" y="160" as="sourcePoint" />
            <mxPoint x="690" y="160" as="targetPoint" />
          </mxGeometry>
        </mxCell>
        <mxCell id="cDRHpvf0Wvk_rWp7cjT8-58" value="" style="endArrow=none;html=1;rounded=0;strokeColor=#0000CC;fontColor=#0000CC;exitX=1;exitY=1;exitDx=0;exitDy=0;entryX=0;entryY=0;entryDx=0;entryDy=0;" edge="1" parent="1" source="cDRHpvf0Wvk_rWp7cjT8-3" target="cDRHpvf0Wvk_rWp7cjT8-38">
          <mxGeometry relative="1" as="geometry">
            <mxPoint x="580" y="170" as="sourcePoint" />
            <mxPoint x="700" y="170" as="targetPoint" />
          </mxGeometry>
        </mxCell>
        <mxCell id="cDRHpvf0Wvk_rWp7cjT8-59" value="" style="endArrow=none;html=1;rounded=0;strokeColor=#0000CC;fontColor=#0000CC;exitX=1;exitY=0;exitDx=0;exitDy=0;entryX=0.352;entryY=0.995;entryDx=0;entryDy=0;entryPerimeter=0;" edge="1" parent="1" source="cDRHpvf0Wvk_rWp7cjT8-3" target="cDRHpvf0Wvk_rWp7cjT8-36">
          <mxGeometry relative="1" as="geometry">
            <mxPoint x="580" y="200" as="sourcePoint" />
            <mxPoint x="634.6446609406726" y="205.85786437626905" as="targetPoint" />
          </mxGeometry>
        </mxCell>
        <mxCell id="cDRHpvf0Wvk_rWp7cjT8-60" value="" style="endArrow=none;html=1;rounded=0;strokeColor=#0000CC;fontColor=#0000CC;exitX=1;exitY=1;exitDx=0;exitDy=0;entryX=0.396;entryY=1.015;entryDx=0;entryDy=0;entryPerimeter=0;" edge="1" parent="1" target="cDRHpvf0Wvk_rWp7cjT8-39">
          <mxGeometry relative="1" as="geometry">
            <mxPoint x="570" y="350" as="sourcePoint" />
            <mxPoint x="624.6446609406726" y="355.85786437626905" as="targetPoint" />
          </mxGeometry>
        </mxCell>
        <mxCell id="cDRHpvf0Wvk_rWp7cjT8-61" value="" style="endArrow=none;html=1;rounded=0;strokeColor=#0000CC;fontColor=#0000CC;exitX=1;exitY=0.5;exitDx=0;exitDy=0;entryX=0;entryY=1;entryDx=0;entryDy=0;" edge="1" parent="1" source="cDRHpvf0Wvk_rWp7cjT8-8" target="cDRHpvf0Wvk_rWp7cjT8-40">
          <mxGeometry relative="1" as="geometry">
            <mxPoint x="580" y="360" as="sourcePoint" />
            <mxPoint x="609.5999999999999" y="330.6" as="targetPoint" />
          </mxGeometry>
        </mxCell>
        <mxCell id="cDRHpvf0Wvk_rWp7cjT8-62" value="" style="endArrow=none;html=1;rounded=0;strokeColor=#0000CC;fontColor=#0000CC;exitX=1;exitY=1;exitDx=0;exitDy=0;entryX=0.396;entryY=1.015;entryDx=0;entryDy=0;entryPerimeter=0;" edge="1" parent="1" source="cDRHpvf0Wvk_rWp7cjT8-8">
          <mxGeometry relative="1" as="geometry">
            <mxPoint x="610.4" y="459.4" as="sourcePoint" />
            <mxPoint x="639.9999999999999" y="430" as="targetPoint" />
          </mxGeometry>
        </mxCell>
        <mxCell id="cDRHpvf0Wvk_rWp7cjT8-63" value="" style="endArrow=none;html=1;rounded=0;strokeColor=#0000CC;fontColor=#0000CC;exitX=0.92;exitY=1.145;exitDx=0;exitDy=0;entryX=0.396;entryY=1.015;entryDx=0;entryDy=0;entryPerimeter=0;exitPerimeter=0;" edge="1" parent="1" source="cDRHpvf0Wvk_rWp7cjT8-8">
          <mxGeometry relative="1" as="geometry">
            <mxPoint x="550" y="440" as="sourcePoint" />
            <mxPoint x="620" y="480" as="targetPoint" />
          </mxGeometry>
        </mxCell>
        <mxCell id="cDRHpvf0Wvk_rWp7cjT8-64" value="" style="endArrow=none;html=1;rounded=0;strokeColor=#0000CC;fontColor=#0000CC;exitX=0;exitY=0.5;exitDx=0;exitDy=0;entryX=0.396;entryY=1.015;entryDx=0;entryDy=0;entryPerimeter=0;" edge="1" parent="1" source="cDRHpvf0Wvk_rWp7cjT8-34">
          <mxGeometry relative="1" as="geometry">
            <mxPoint x="112" y="175.79999999999995" as="sourcePoint" />
            <mxPoint x="170" y="260" as="targetPoint" />
          </mxGeometry>
        </mxCell>
        <mxCell id="cDRHpvf0Wvk_rWp7cjT8-65" value="" style="endArrow=none;html=1;rounded=0;strokeColor=#0000CC;fontColor=#0000CC;exitX=0.5;exitY=1;exitDx=0;exitDy=0;entryX=0.75;entryY=0;entryDx=0;entryDy=0;" edge="1" parent="1" source="cDRHpvf0Wvk_rWp7cjT8-35" target="cDRHpvf0Wvk_rWp7cjT8-2">
          <mxGeometry relative="1" as="geometry">
            <mxPoint x="200" y="250" as="sourcePoint" />
            <mxPoint x="180" y="270" as="targetPoint" />
          </mxGeometry>
        </mxCell>
        <mxCell id="cDRHpvf0Wvk_rWp7cjT8-66" value="" style="endArrow=none;html=1;rounded=0;strokeColor=#0000CC;fontColor=#0000CC;exitX=1;exitY=0.5;exitDx=0;exitDy=0;entryX=0;entryY=0.5;entryDx=0;entryDy=0;" edge="1" parent="1" source="cDRHpvf0Wvk_rWp7cjT8-50" target="cDRHpvf0Wvk_rWp7cjT8-52">
          <mxGeometry relative="1" as="geometry">
            <mxPoint x="582" y="697.9" as="sourcePoint" />
            <mxPoint x="640" y="782.1" as="targetPoint" />
          </mxGeometry>
        </mxCell>
        <mxCell id="cDRHpvf0Wvk_rWp7cjT8-67" value="" style="endArrow=none;html=1;rounded=0;strokeColor=#0000CC;fontColor=#0000CC;exitX=1;exitY=0.5;exitDx=0;exitDy=0;" edge="1" parent="1">
          <mxGeometry relative="1" as="geometry">
            <mxPoint x="170" y="680" as="sourcePoint" />
            <mxPoint x="200" y="640" as="targetPoint" />
          </mxGeometry>
        </mxCell>
        <mxCell id="cDRHpvf0Wvk_rWp7cjT8-68" value="" style="endArrow=none;html=1;rounded=0;strokeColor=#0000CC;fontColor=#0000CC;exitX=1;exitY=0.5;exitDx=0;exitDy=0;entryX=0.024;entryY=0.715;entryDx=0;entryDy=0;entryPerimeter=0;" edge="1" parent="1" source="cDRHpvf0Wvk_rWp7cjT8-4" target="cDRHpvf0Wvk_rWp7cjT8-43">
          <mxGeometry relative="1" as="geometry">
            <mxPoint x="180" y="690" as="sourcePoint" />
            <mxPoint x="210" y="650" as="targetPoint" />
          </mxGeometry>
        </mxCell>
        <mxCell id="cDRHpvf0Wvk_rWp7cjT8-69" value="" style="endArrow=none;html=1;rounded=0;strokeColor=#0000CC;fontColor=#0000CC;exitX=1;exitY=1;exitDx=0;exitDy=0;entryX=0;entryY=0.5;entryDx=0;entryDy=0;" edge="1" parent="1" source="cDRHpvf0Wvk_rWp7cjT8-4" target="cDRHpvf0Wvk_rWp7cjT8-49">
          <mxGeometry relative="1" as="geometry">
            <mxPoint x="180" y="710" as="sourcePoint" />
            <mxPoint x="262.4000000000001" y="678.5999999999999" as="targetPoint" />
          </mxGeometry>
        </mxCell>
        <mxCell id="cDRHpvf0Wvk_rWp7cjT8-70" value="" style="endArrow=none;html=1;rounded=0;strokeColor=#0000CC;fontColor=#0000CC;exitX=0;exitY=0;exitDx=0;exitDy=0;entryX=0.5;entryY=1;entryDx=0;entryDy=0;" edge="1" parent="1" source="cDRHpvf0Wvk_rWp7cjT8-4" target="cDRHpvf0Wvk_rWp7cjT8-45">
          <mxGeometry relative="1" as="geometry">
            <mxPoint x="180" y="690" as="sourcePoint" />
            <mxPoint x="210" y="650" as="targetPoint" />
          </mxGeometry>
        </mxCell>
        <mxCell id="cDRHpvf0Wvk_rWp7cjT8-71" value="" style="endArrow=none;html=1;rounded=0;strokeColor=#0000CC;fontColor=#0000CC;exitX=0.864;exitY=1.015;exitDx=0;exitDy=0;entryX=0;entryY=0;entryDx=0;entryDy=0;exitPerimeter=0;" edge="1" parent="1" source="cDRHpvf0Wvk_rWp7cjT8-4" target="cDRHpvf0Wvk_rWp7cjT8-48">
          <mxGeometry relative="1" as="geometry">
            <mxPoint x="180" y="730" as="sourcePoint" />
            <mxPoint x="260" y="750" as="targetPoint" />
          </mxGeometry>
        </mxCell>
        <mxCell id="cDRHpvf0Wvk_rWp7cjT8-73" value="" style="endArrow=none;html=1;rounded=0;strokeColor=#0000CC;fontColor=#0000CC;entryX=0.5;entryY=0;entryDx=0;entryDy=0;exitX=0.5;exitY=1;exitDx=0;exitDy=0;" edge="1" parent="1" source="cDRHpvf0Wvk_rWp7cjT8-4" target="cDRHpvf0Wvk_rWp7cjT8-47">
          <mxGeometry relative="1" as="geometry">
            <mxPoint x="150" y="740" as="sourcePoint" />
            <mxPoint x="254.64466094067257" y="815.8578643762689" as="targetPoint" />
          </mxGeometry>
        </mxCell>
      </root>
    </mxGraphModel>
  </diagram>
</mxfile>
